<svg xmlns="http://www.w3.org/2000/svg" xmlns:xlink="http://www.w3.org/1999/xlink" width="840" height="581.04"><rect width="840" height="581.04" rx="5" ry="5" class="a"/><svg y="0%" x="0%"><circle cx="20" cy="20" r="6" fill="#ff5f58"/><circle cx="40" cy="20" r="6" fill="#ffbd2e"/><circle cx="60" cy="20" r="6" fill="#18c132"/></svg><svg height="521.04" viewBox="0 0 80 52.104" width="800" x="15" xmlns="http://www.w3.org/2000/svg" xmlns:xlink="http://www.w3.org/1999/xlink" y="50"><style>@keyframes i{0%{transform:translateX(0)}15%{transform:translateX(-80px)}35%{transform:translateX(-160px)}55%{transform:translateX(-240px)}75%{transform:translateX(-320px)}to{transform:translateX(-400px)}}.a{fill:#282d35}.f{fill:#b9c0cb;white-space:pre}</style><g font-family="Monaco,Consolas,Menlo,'Bitstream Vera Sans Mono','Powerline Symbols',monospace" font-size="1.67"><defs><symbol id="1"><text y="1.67" class="f">╔══════════════════════════════════════════════════╗</text></symbol><symbol id="2"><text y="1.67" class="f">║</text><text x="6.012" y="1.67" class="f">🛡️</text><text x="11.022" y="1.67" class="f">Moat</text><text x="16.032" y="1.67" class="f">—</text><text x="18.036" y="1.67" class="f">AI</text><text x="21.042" y="1.67" class="f">编码护城河</text><text x="27.054" y="1.67" class="f">演示</text><text x="44.088" y="1.67" class="f">║</text></symbol><symbol id="3"><text y="1.67" class="f">╚══════════════════════════════════════════════════╝</text></symbol><symbol id="4"><text y="1.67" class="f">📄</text><text x="3.006" y="1.67" class="f">问题代码:</text><text x="9.018" y="1.67" class="f">SQL</text><text x="13.026" y="1.67" class="f">注入</text><text x="16.032" y="1.67" class="f">+</text><text x="18.036" y="1.67" class="f">敏感文件暴露</text></symbol><symbol id="5"><text y="1.67" class="f">🔒</text><text x="3.006" y="1.67" class="f">代码泄露风险检测...</text></symbol><symbol id="6"><text x="3.006" y="1.67" class="f">🔍</text><text x="6.012" y="1.67" class="f">扫描泄露风险...</text></symbol><symbol id="7"><text y="1.67" class="f">=======================================================</text></symbol><symbol id="8"><text x="2.004" y="1.67" class="f">❌</text><text x="4.008" y="1.67" class="f">发现</text><text x="7.014" y="1.67" class="f">1</text><text x="9.018" y="1.67" class="f">个泄露风险</text></symbol><symbol id="9"><text x="2.004" y="1.67" class="f">🔴</text><text x="5.01" y="1.67" class="f">[CRITICAL]</text><text x="16.032" y="1.67" class="f">敏感文件暴露:</text><text x="24.048" y="1.67" class="f">.env</text></symbol><symbol id="10"><text x="5.01" y="1.67" class="f">📍</text><text x="8.016" y="1.67" class="f">.env</text></symbol><symbol id="11"><text x="5.01" y="1.67" class="f">💡</text><text x="8.016" y="1.67" class="f">将</text><text x="10.02" y="1.67" class="f">.env</text><text x="15.03" y="1.67" class="f">加入</text><text x="18.036" y="1.67" class="f">.gitignore。使用</text><text x="32.064" y="1.67" class="f">.env.example</text><text x="45.09" y="1.67" class="f">作为模板提交。</text></symbol><symbol id="12"><text y="1.67" class="f">📋</text><text x="3.006" y="1.67" class="f">建议:</text></symbol><symbol id="13"><text x="2.004" y="1.67" class="f">发现</text><text x="5.01" y="1.67" class="f">1</text><text x="7.014" y="1.67" class="f">个泄露风险</text></symbol><symbol id="14"><text x="4.008" y="1.67" class="f">🔴</text><text x="7.014" y="1.67" class="f">1</text><text x="9.018" y="1.67" class="f">个</text><text x="11.022" y="1.67" class="f">CRITICAL</text><text x="20.04" y="1.67" class="f">风险，建议立即修复</text></symbol><symbol id="15"><text x="4.008" y="1.67" class="f">📍</text><text x="7.014" y="1.67" class="f">.env:</text><text x="13.026" y="1.67" class="f">敏感文件暴露:</text><text x="21.042" y="1.67" class="f">.env</text></symbol><symbol id="a"><path fill="transparent" d="M0 0h80v24H0z"/></symbol><symbol id="b"><path fill="#6f7683" d="M0 0h1.102v2.171H0z"/></symbol></defs><path class="a" d="M0 0h80v52.104H0z"/><g style="animation-duration:3s;animation-iteration-count:infinite;animation-name:i;animation-timing-function:steps(1,end)"><svg width="480"><svg><use xlink:href="#a"/><use xlink:href="#b" x="-.004"/></svg><svg x="80"><use xlink:href="#a"/><use xlink:href="#b" x="-.004" y="13.001"/><use xlink:href="#1"/><use xlink:href="#2" y="2.171"/><use xlink:href="#3" y="4.342"/><use xlink:href="#4" y="8.684"/></svg><svg x="160"><use xlink:href="#a"/><use xlink:href="#b" x="-.004" y="17.343"/><use xlink:href="#1"/><use xlink:href="#2" y="2.171"/><use xlink:href="#3" y="4.342"/><use xlink:href="#4" y="8.684"/><use xlink:href="#5" y="15.197"/></svg><svg x="240"><use xlink:href="#a"/><use xlink:href="#b" x="-.004" y="19.514"/><use xlink:href="#1"/><use xlink:href="#2" y="2.171"/><use xlink:href="#3" y="4.342"/><use xlink:href="#4" y="8.684"/><use xlink:href="#5" y="15.197"/><use xlink:href="#6" y="17.368"/></svg><svg x="320"><use xlink:href="#a"/><use xlink:href="#b" x="-.004" y="47.737"/><use xlink:href="#1"/><use xlink:href="#2" y="2.171"/><use xlink:href="#3" y="4.342"/><use xlink:href="#4" y="8.684"/><use xlink:href="#5" y="15.197"/><use xlink:href="#6" y="17.368"/><use xlink:href="#7" y="21.71"/><use xlink:href="#8" y="23.881"/><use xlink:href="#9" y="26.052"/><use xlink:href="#10" y="28.223"/><use xlink:href="#11" y="30.394"/><use xlink:href="#7" y="32.565"/><use xlink:href="#12" y="36.907"/><use xlink:href="#13" y="39.078"/><use xlink:href="#14" y="41.249"/><use xlink:href="#15" y="43.42"/></svg><svg x="400"><use xlink:href="#a"/><use xlink:href="#b" x="-.004" y="49.908"/><use xlink:href="#3"/><use xlink:href="#4" y="4.342"/><use xlink:href="#5" y="10.855"/><use xlink:href="#6" y="13.026"/><use xlink:href="#7" y="17.368"/><use xlink:href="#8" y="19.539"/><use xlink:href="#9" y="21.71"/><use xlink:href="#10" y="23.881"/><use xlink:href="#11" y="26.052"/><use xlink:href="#7" y="28.223"/><use xlink:href="#12" y="32.565"/><use xlink:href="#13" y="34.736"/><use xlink:href="#14" y="36.907"/><use xlink:href="#15" y="39.078"/><text y="47.261" class="f">✅</text><text x="2.004" y="47.261" class="f">演示完成</text><text y="49.432" class="f">📦</text><text x="3.006" y="49.432" class="f">pip</text><text x="7.014" y="49.432" class="f">install</text><text x="15.03" y="49.432" class="f">moat-ai</text></svg></svg></g></g></svg></svg>