<svg xmlns="http://www.w3.org/2000/svg" xmlns:xlink="http://www.w3.org/1999/xlink" width="840" height="581.04"><rect width="840" height="581.04" rx="5" ry="5" class="a"/><svg y="0%" x="0%"><circle cx="20" cy="20" r="6" fill="#ff5f58"/><circle cx="40" cy="20" r="6" fill="#ffbd2e"/><circle cx="60" cy="20" r="6" fill="#18c132"/></svg><svg height="521.04" viewBox="0 0 80 52.104" width="800" x="15" xmlns="http://www.w3.org/2000/svg" xmlns:xlink="http://www.w3.org/1999/xlink" y="50"><style>@keyframes i{0%{transform:translateX(0)}49.4%{transform:translateX(-80px)}49.5%{transform:translateX(-160px)}57.2%{transform:translateX(-240px)}57.8%{transform:translateX(-400px)}99%{transform:translateX(-720px)}to{transform:translateX(-800px)}}.a{fill:#282d35}.f{fill:#b9c0cb;white-space:pre}</style><g font-family="Monaco,Consolas,Menlo,'Bitstream Vera Sans Mono','Powerline Symbols',monospace" font-size="1.67"><defs><symbol id="1"><text y="1.67" class="f">╔══════════════════════════════════════════════════╗</text></symbol><symbol id="2"><text y="1.67" class="f">║</text><text x="6.012" y="1.67" class="f">🛡️</text><text x="11.022" y="1.67" class="f">Moat</text><text x="16.032" y="1.67" class="f">—</text><text x="18.036" y="1.67" class="f">AI</text><text x="21.042" y="1.67" class="f">工具系统配置审计</text><text x="43.086" y="1.67" class="f">║</text></symbol><symbol id="3"><text y="1.67" class="f">║</text><text x="6.012" y="1.67" class="f">检测</text><text x="9.018" y="1.67" class="f">AI</text><text x="12.024" y="1.67" class="f">工具是否在偷你的数据</text><text x="39.078" y="1.67" class="f">║</text></symbol><symbol id="4"><text y="1.67" class="f">╚══════════════════════════════════════════════════╝</text></symbol><symbol id="5"><text y="1.67" class="f">📋</text><text x="3.006" y="1.67" class="f">扫描</text><text x="6.012" y="1.67" class="f">~/.claude/</text><text x="17.034" y="1.67" class="f">~/.grok/</text><text x="26.052" y="1.67" class="f">~/.codex/</text><text x="36.072" y="1.67" class="f">...</text></symbol><symbol id="6"><text y="1.67" class="f">🕵️</text><text x="5.01" y="1.67" class="f">AI</text><text x="8.016" y="1.67" class="f">工具系统配置安全审计...</text></symbol><symbol id="7"><text x="3.006" y="1.67" class="f">🕵️</text><text x="7.014" y="1.67" class="f">扫描</text><text x="10.02" y="1.67" class="f">AI</text><text x="13.026" y="1.67" class="f">工具系统配置...</text></symbol><symbol id="8"><text x="3.006" y="1.67" class="f">📋</text><text x="6.012" y="1.67" class="f">发现</text><text x="9.018" y="1.67" class="f">Claude</text><text x="16.032" y="1.67" class="f">Code</text><text x="21.042" y="1.67" class="f">配置:</text><text x="25.05" y="1.67" class="f">/Users/mac/.claude</text></symbol><symbol id="9"><text y="1.67" class="f">=======================================================</text></symbol><symbol id="10"><text x="2.004" y="1.67" class="f">🟡</text><text x="5.01" y="1.67" class="f">[WARNING]</text><text x="15.03" y="1.67" class="f">Claude</text><text x="22.044" y="1.67" class="f">Code</text><text x="27.054" y="1.67" class="f">遥测数据:</text><text x="33.066" y="1.67" class="f">24</text><text x="36.072" y="1.67" class="f">个文件,</text><text x="41.082" y="1.67" class="f">302.3</text><text x="47.094" y="1.67" class="f">KB</text></symbol><symbol id="11"><text x="5.01" y="1.67" class="f">📍</text><text x="8.016" y="1.67" class="f">/Users/mac/.claude/telemetry</text></symbol><symbol id="12"><text x="5.01" y="1.67" class="f">💡</text><text x="8.016" y="1.67" class="f">检查</text><text x="11.022" y="1.67" class="f">telemetry</text><text x="21.042" y="1.67" class="f">目录内容。如需关闭遥测，检查</text><text x="36.072" y="1.67" class="f">settings.json</text><text x="50.1" y="1.67" class="f">中的</text><text x="53.106" y="1.67" class="f">telemetry_enabled</text><text x="71.142" y="1.67" class="f">配置。</text></symbol><symbol id="13"><text x="2.004" y="1.67" class="f">ℹ️</text><text x="5.01" y="1.67" class="f">[INFO]</text><text x="12.024" y="1.67" class="f">Claude</text><text x="19.038" y="1.67" class="f">Code</text><text x="24.048" y="1.67" class="f">会话历史:</text><text x="30.06" y="1.67" class="f">421.9</text><text x="36.072" y="1.67" class="f">KB</text></symbol><symbol id="14"><text x="5.01" y="1.67" class="f">📍</text><text x="8.016" y="1.67" class="f">/Users/mac/.claude/history.jsonl</text></symbol><symbol id="15"><text x="5.01" y="1.67" class="f">💡</text><text x="8.016" y="1.67" class="f">会话日志包含所有对话历史。如涉及敏感信息，建议定期清理。</text></symbol><symbol id="16"><text x="2.004" y="1.67" class="f">🟡</text><text x="5.01" y="1.67" class="f">[WARNING]</text><text x="15.03" y="1.67" class="f">Claude</text><text x="22.044" y="1.67" class="f">Code</text><text x="27.054" y="1.67" class="f">已授权</text><text x="31.062" y="1.67" class="f">19</text><text x="34.068" y="1.67" class="f">个敏感命令</text></symbol><symbol id="17"><text x="5.01" y="1.67" class="f">📍</text><text x="8.016" y="1.67" class="f">/Users/mac/.claude/settings.local.json</text></symbol><symbol id="18"><text x="5.01" y="1.67" class="f">💡</text><text x="8.016" y="1.67" class="f">检查授权列表中的敏感命令（sshpass,</text><text x="30.06" y="1.67" class="f">scp,</text><text x="35.07" y="1.67" class="f">tar</text><text x="39.078" y="1.67" class="f">czf</text><text x="43.086" y="1.67" class="f">等）。如需撤销，编辑</text><text x="54.108" y="1.67" class="f">settings.local.json</text><text x="74.148" y="1.67" class="f">移除对应条目</text></symbol><symbol id="19"><text y="1.67" class="f">。</text></symbol><symbol id="20"><text x="8.016" y="1.67" class="f">⚠️</text><text x="12.024" y="1.67" class="f">Bash(curl</text><text x="22.044" y="1.67" class="f">-s</text><text x="25.05" y="1.67" class="f">https://one.cloudkey.top)</text></symbol><symbol id="21"><text x="8.016" y="1.67" class="f">⚠️</text><text x="12.024" y="1.67" class="f">Bash(curl</text><text x="22.044" y="1.67" class="f">-sI</text><text x="26.052" y="1.67" class="f">https://one.cloudkey.top/downloads/latest-mac.yml)</text></symbol><symbol id="22"><text x="8.016" y="1.67" class="f">⚠️</text><text x="12.024" y="1.67" class="f">Bash(curl</text><text x="22.044" y="1.67" class="f">-sL</text><text x="26.052" y="1.67" class="f">-o</text><text x="29.058" y="1.67" class="f">wine.tar.xz</text><text x="41.082" y="1.67" class="f">&quot;https://github.com/Gcenx/wine-on-mac/r</text></symbol><symbol id="23"><text y="1.67" class="f">eleases/down</text></symbol><symbol id="24"><text x="8.016" y="1.67" class="f">⚠️</text><text x="12.024" y="1.67" class="f">Bash(curl</text><text x="22.044" y="1.67" class="f">-sI</text><text x="26.052" y="1.67" class="f">https://one.cloudkey.top/downloads/latest.yml)</text></symbol><symbol id="25"><text x="8.016" y="1.67" class="f">⚠️</text><text x="12.024" y="1.67" class="f">Bash(curl</text><text x="22.044" y="1.67" class="f">-sI</text><text x="26.052" y="1.67" class="f">&quot;https://one.cloudkey.top/downloads/One%20Setup%200.6.</text></symbol><symbol id="26"><text y="1.67" class="f">93.exe&quot;)</text></symbol><symbol id="27"><text x="8.016" y="1.67" class="f">⚠️</text><text x="12.024" y="1.67" class="f">Bash(curl</text><text x="22.044" y="1.67" class="f">-sI</text><text x="26.052" y="1.67" class="f">&quot;https://one.cloudkey.top/downloads/One-0.6.93-arm64.d</text></symbol><symbol id="28"><text y="1.67" class="f">mg&quot;)</text></symbol><symbol id="29"><text x="8.016" y="1.67" class="f">⚠️</text><text x="12.024" y="1.67" class="f">Bash(curl</text><text x="22.044" y="1.67" class="f">-s</text><text x="25.05" y="1.67" class="f">http://127.0.0.1:5174/)</text></symbol><symbol id="30"><text x="8.016" y="1.67" class="f">⚠️</text><text x="12.024" y="1.67" class="f">Bash(curl</text><text x="22.044" y="1.67" class="f">-s</text><text x="25.05" y="1.67" class="f">http://127.0.0.1:8766/api/tasks)</text></symbol><symbol id="31"><text x="8.016" y="1.67" class="f">⚠️</text><text x="12.024" y="1.67" class="f">Bash(curl</text><text x="22.044" y="1.67" class="f">-s</text><text x="25.05" y="1.67" class="f">http://127.0.0.1:5174/src/pages/ChatPage.tsx)</text></symbol><symbol id="32"><text x="8.016" y="1.67" class="f">⚠️</text><text x="12.024" y="1.67" class="f">Bash(curl</text><text x="22.044" y="1.67" class="f">-s</text><text x="25.05" y="1.67" class="f">http://localhost:8766/api/ponytail/mode)</text></symbol><symbol id="33"><text x="8.016" y="1.67" class="f">⚠️</text><text x="12.024" y="1.67" class="f">Bash(curl</text><text x="22.044" y="1.67" class="f">-s</text><text x="25.05" y="1.67" class="f">http://localhost:8766/api/ponytail/config)</text></symbol><symbol id="34"><text x="8.016" y="1.67" class="f">⚠️</text><text x="12.024" y="1.67" class="f">Bash(curl</text><text x="22.044" y="1.67" class="f">-s</text><text x="25.05" y="1.67" class="f">http://localhost:8766/api/ponytail/debt)</text></symbol><symbol id="35"><text x="8.016" y="1.67" class="f">⚠️</text><text x="12.024" y="1.67" class="f">Bash(curl</text><text x="22.044" y="1.67" class="f">-s</text><text x="25.05" y="1.67" class="f">http://localhost:8766/api/ponytail/review)</text></symbol><symbol id="36"><text x="8.016" y="1.67" class="f">⚠️</text><text x="12.024" y="1.67" class="f">Bash(curl</text><text x="22.044" y="1.67" class="f">-s</text><text x="25.05" y="1.67" class="f">http://localhost:5174/)</text></symbol><symbol id="37"><text x="8.016" y="1.67" class="f">⚠️</text><text x="12.024" y="1.67" class="f">Bash(curl</text><text x="22.044" y="1.67" class="f">*)</text></symbol><symbol id="38"><text x="8.016" y="1.67" class="f">⚠️</text><text x="12.024" y="1.67" class="f">Bash(rm</text><text x="20.04" y="1.67" class="f">-rf</text><text x="24.048" y="1.67" class="f">packages/backend/src/openharness)</text></symbol><symbol id="39"><text x="8.016" y="1.67" class="f">⚠️</text><text x="12.024" y="1.67" class="f">Bash(rm</text><text x="20.04" y="1.67" class="f">-rf</text><text x="24.048" y="1.67" class="f">/private/tmp/claude-501/)</text></symbol><symbol id="40"><text x="8.016" y="1.67" class="f">⚠️</text><text x="12.024" y="1.67" class="f">Bash(chmod</text><text x="23.046" y="1.67" class="f">+x</text><text x="26.052" y="1.67" class="f">*)</text></symbol><symbol id="41"><text x="8.016" y="1.67" class="f">⚠️</text><text x="12.024" y="1.67" class="f">Bash(chmod</text><text x="23.046" y="1.67" class="f">+r</text><text x="26.052" y="1.67" class="f">/Users/mac/Desktop/oh-agent-panel/packages/frontend/pa</text></symbol><symbol id="42"><text y="1.67" class="f">ckage.json)</text></symbol><symbol id="43"><text x="2.004" y="1.67" class="f">🟡</text><text x="5.01" y="1.67" class="f">[WARNING]</text><text x="15.03" y="1.67" class="f">Codex</text><text x="21.042" y="1.67" class="f">CLI</text><text x="25.05" y="1.67" class="f">配置存在:</text><text x="31.062" y="1.67" class="f">1354029.7</text><text x="41.082" y="1.67" class="f">KB</text><text x="44.088" y="1.67" class="f">数据</text></symbol><symbol id="44"><text x="5.01" y="1.67" class="f">📍</text><text x="8.016" y="1.67" class="f">/Users/mac/.codex</text></symbol><symbol id="45"><text x="5.01" y="1.67" class="f">💡</text><text x="8.016" y="1.67" class="f">Codex</text><text x="14.028" y="1.67" class="f">CLI</text><text x="18.036" y="1.67" class="f">会记录会话数据。请确认其隐私政策。</text></symbol><symbol id="46"><text y="1.67" class="f">📋</text><text x="3.006" y="1.67" class="f">建议:</text></symbol><symbol id="47"><text x="2.004" y="1.67" class="f">AI</text><text x="5.01" y="1.67" class="f">工具审计:</text><text x="11.022" y="1.67" class="f">发现</text><text x="14.028" y="1.67" class="f">4</text><text x="16.032" y="1.67" class="f">项</text></symbol><symbol id="a"><path fill="transparent" d="M0 0h80v24H0z"/></symbol><symbol id="b"><path fill="#6f7683" d="M0 0h1.102v2.171H0z"/></symbol></defs><path class="a" d="M0 0h80v52.104H0z"/><g style="animation-duration:1.437798s;animation-iteration-count:infinite;animation-name:i;animation-timing-function:steps(1,end)"><svg width="880"><svg><use xlink:href="#a"/><use xlink:href="#b" x="-.004"/></svg><svg x="80"><use xlink:href="#a"/><use xlink:href="#b" x="-.004" y="6.488"/><use xlink:href="#1"/><use xlink:href="#2" y="2.171"/><use xlink:href="#3" y="4.342"/></svg><svg x="160"><use xlink:href="#a"/><use xlink:href="#b" x="-.004" y="15.172"/><use xlink:href="#1"/><use xlink:href="#2" y="2.171"/><use xlink:href="#3" y="4.342"/><use xlink:href="#4" y="6.513"/><use xlink:href="#5" y="10.855"/></svg><svg x="240"><use xlink:href="#a"/><use xlink:href="#b" x="-.004" y="19.514"/><use xlink:href="#1"/><use xlink:href="#2" y="2.171"/><use xlink:href="#3" y="4.342"/><use xlink:href="#4" y="6.513"/><use xlink:href="#5" y="10.855"/><use xlink:href="#6" y="17.368"/></svg><svg x="320"><use xlink:href="#a"/><use xlink:href="#b" x="-.004" y="21.685"/><use xlink:href="#1"/><use xlink:href="#2" y="2.171"/><use xlink:href="#3" y="4.342"/><use xlink:href="#4" y="6.513"/><use xlink:href="#5" y="10.855"/><use xlink:href="#6" y="17.368"/><use xlink:href="#7" y="19.539"/></svg><svg x="400"><use xlink:href="#a"/><use xlink:href="#b" x="-.004" y="23.856"/><use xlink:href="#1"/><use xlink:href="#2" y="2.171"/><use xlink:href="#3" y="4.342"/><use xlink:href="#4" y="6.513"/><use xlink:href="#5" y="10.855"/><use xlink:href="#6" y="17.368"/><use xlink:href="#7" y="19.539"/><use xlink:href="#8" y="21.71"/></svg><svg x="480"><use xlink:href="#a"/><use xlink:href="#b" x="-.004" y="45.566"/><use xlink:href="#1"/><use xlink:href="#2" y="2.171"/><use xlink:href="#3" y="4.342"/><use xlink:href="#4" y="6.513"/><use xlink:href="#5" y="10.855"/><use xlink:href="#6" y="17.368"/><use xlink:href="#7" y="19.539"/><use xlink:href="#8" y="21.71"/><text x="3.006" y="25.551" class="f">📊</text><text x="6.012" y="25.551" class="f">AI</text><text x="9.018" y="25.551" class="f">工具数据总量:</text><text x="17.034" y="25.551" class="f">1354753.8</text><text x="27.054" y="25.551" class="f">KB</text><use xlink:href="#9" y="28.223"/><text x="2.004" y="32.064" class="f">🛡️</text><text x="7.014" y="32.064" class="f">AI</text><text x="10.02" y="32.064" class="f">工具审计报告</text><use xlink:href="#9" y="32.565"/><use xlink:href="#10" y="34.736"/><use xlink:href="#11" y="36.907"/><use xlink:href="#12" y="39.078"/><use xlink:href="#13" y="43.42"/></svg><svg x="560"><use xlink:href="#a"/><use xlink:href="#b" x="8.996" y="49.908"/><use xlink:href="#10"/><use xlink:href="#11" y="2.171"/><use xlink:href="#12" y="4.342"/><use xlink:href="#13" y="8.684"/><use xlink:href="#14" y="10.855"/><use xlink:href="#15" y="13.026"/><use xlink:href="#16" y="17.368"/><use xlink:href="#17" y="19.539"/><use xlink:href="#18" y="21.71"/><use xlink:href="#19" y="23.881"/><use xlink:href="#20" y="26.052"/><use xlink:href="#21" y="28.223"/><use xlink:href="#22" y="30.394"/><use xlink:href="#23" y="32.565"/><use xlink:href="#24" y="34.736"/><use xlink:href="#25" y="36.907"/><use xlink:href="#26" y="39.078"/><use xlink:href="#27" y="41.249"/><use xlink:href="#28" y="43.42"/><use xlink:href="#29" y="45.591"/><use xlink:href="#30" y="47.762"/><text x="8.016" y="51.603" class="f">⚠</text></svg><svg x="640"><use xlink:href="#a"/><use xlink:href="#b" x="-.004" y="49.908"/><use xlink:href="#12"/><use xlink:href="#13" y="4.342"/><use xlink:href="#14" y="6.513"/><use xlink:href="#15" y="8.684"/><use xlink:href="#16" y="13.026"/><use xlink:href="#17" y="15.197"/><use xlink:href="#18" y="17.368"/><use xlink:href="#19" y="19.539"/><use xlink:href="#20" y="21.71"/><use xlink:href="#21" y="23.881"/><use xlink:href="#22" y="26.052"/><use xlink:href="#23" y="28.223"/><use xlink:href="#24" y="30.394"/><use xlink:href="#25" y="32.565"/><use xlink:href="#26" y="34.736"/><use xlink:href="#27" y="36.907"/><use xlink:href="#28" y="39.078"/><use xlink:href="#29" y="41.249"/><use xlink:href="#30" y="43.42"/><use xlink:href="#31" y="45.591"/><use xlink:href="#32" y="47.762"/></svg><svg x="720"><use xlink:href="#a"/><use xlink:href="#b" x="-.004" y="49.908"/><use xlink:href="#28"/><use xlink:href="#29" y="2.171"/><use xlink:href="#30" y="4.342"/><use xlink:href="#31" y="6.513"/><use xlink:href="#32" y="8.684"/><use xlink:href="#33" y="10.855"/><use xlink:href="#34" y="13.026"/><use xlink:href="#35" y="15.197"/><use xlink:href="#36" y="17.368"/><use xlink:href="#37" y="19.539"/><use xlink:href="#38" y="21.71"/><use xlink:href="#39" y="23.881"/><use xlink:href="#40" y="26.052"/><use xlink:href="#41" y="28.223"/><use xlink:href="#42" y="30.394"/><use xlink:href="#43" y="34.736"/><use xlink:href="#44" y="36.907"/><use xlink:href="#45" y="39.078"/><use xlink:href="#46" y="43.42"/><use xlink:href="#47" y="45.591"/></svg><svg x="800"><use xlink:href="#a"/><use xlink:href="#b" x="-.004" y="49.908"/><use xlink:href="#30"/><use xlink:href="#31" y="2.171"/><use xlink:href="#32" y="4.342"/><use xlink:href="#33" y="6.513"/><use xlink:href="#34" y="8.684"/><use xlink:href="#35" y="10.855"/><use xlink:href="#36" y="13.026"/><use xlink:href="#37" y="15.197"/><use xlink:href="#38" y="17.368"/><use xlink:href="#39" y="19.539"/><use xlink:href="#40" y="21.71"/><use xlink:href="#41" y="23.881"/><use xlink:href="#42" y="26.052"/><use xlink:href="#43" y="30.394"/><use xlink:href="#44" y="32.565"/><use xlink:href="#45" y="34.736"/><use xlink:href="#46" y="39.078"/><use xlink:href="#47" y="41.249"/><text y="49.432" class="f">✅</text><text x="2.004" y="49.432" class="f">审计完成</text><text x="7.014" y="49.432" class="f">|</text><text x="9.018" y="49.432" class="f">pip</text><text x="13.026" y="49.432" class="f">install</text><text x="21.042" y="49.432" class="f">moat-ai</text></svg></svg></g></g></svg></svg>